<svg width="100" height="100" viewBox="0 0 100 100" fill="none" xmlns="http://www.w3.org/2000/svg">
<path d="M10.0417 9.58325C9.21287 9.58325 8.41801 9.91249 7.83196 10.4985C7.24591 11.0846 6.91667 11.8795 6.91667 12.7083V80.4166H15.25V68.9583C15.25 66.0833 17.5833 63.7499 20.4583 63.7499H47.5417C50.4167 63.7499 52.75 66.0833 52.75 68.9583V80.4166H61.0833V43.9583C61.0833 43.1295 60.7541 42.3346 60.168 41.7485C59.582 41.1625 58.7871 40.8333 57.9583 40.8333H49.625C48.7962 40.8333 48.0013 40.504 47.4153 39.918C46.8292 39.3319 46.5 38.5371 46.5 37.7083V12.7083C46.5 11.8795 46.1708 11.0846 45.5847 10.4985C44.9987 9.91249 44.2038 9.58325 43.375 9.58325H10.0417ZM21.5 69.9999V80.4166H30.875V69.9999H21.5ZM37.125 69.9999V80.4166H46.5V69.9999H37.125ZM64.2083 86.6666H3.79167C2.96287 86.6666 2.16801 86.3374 1.58196 85.7513C0.995911 85.1653 0.666672 84.3704 0.666672 83.5416V12.7083C0.666672 10.2218 1.65439 7.83728 3.41255 6.07913C5.1707 4.32097 7.55527 3.33325 10.0417 3.33325H43.375C45.8614 3.33325 48.246 4.32097 50.0041 6.07913C51.7623 7.83728 52.75 10.2218 52.75 12.7083V34.5833H57.9583C59.1895 34.5833 60.4086 34.8257 61.546 35.2969C62.6834 35.768 63.7169 36.4586 64.5875 37.3291C65.458 38.1997 66.1486 39.2332 66.6197 40.3706C67.0909 41.508 67.3333 42.7271 67.3333 43.9583V83.5416C67.3333 84.3704 67.0041 85.1653 66.418 85.7513C65.832 86.3374 65.0371 86.6666 64.2083 86.6666ZM15.25 22.0833C15.25 20.9782 15.689 19.9184 16.4704 19.137C17.2518 18.3556 18.3116 17.9166 19.4167 17.9166C20.5217 17.9166 21.5815 18.3556 22.3629 19.137C23.1444 19.9184 23.5833 20.9782 23.5833 22.0833C23.5833 23.1883 23.1444 24.2481 22.3629 25.0295C21.5815 25.8109 20.5217 26.2499 19.4167 26.2499C18.3116 26.2499 17.2518 25.8109 16.4704 25.0295C15.689 24.2481 15.25 23.1883 15.25 22.0833ZM19.4167 47.0833C18.3116 47.0833 17.2518 47.5222 16.4704 48.3036C15.689 49.085 15.25 50.1449 15.25 51.2499C15.25 52.355 15.689 53.4148 16.4704 54.1962C17.2518 54.9776 18.3116 55.4166 19.4167 55.4166C20.5217 55.4166 21.5815 54.9776 22.3629 54.1962C23.1444 53.4148 23.5833 52.355 23.5833 51.2499C23.5833 50.1449 23.1444 49.085 22.3629 48.3036C21.5815 47.5222 20.5217 47.0833 19.4167 47.0833ZM19.4167 32.4999C18.3116 32.4999 17.2518 32.9389 16.4704 33.7203C15.689 34.5017 15.25 35.5615 15.25 36.6666C15.25 37.7717 15.689 38.8315 16.4704 39.6129C17.2518 40.3943 18.3116 40.8333 19.4167 40.8333C20.5217 40.8333 21.5815 40.3943 22.3629 39.6129C23.1444 38.8315 23.5833 37.7717 23.5833 36.6666C23.5833 35.5615 23.1444 34.5017 22.3629 33.7203C21.5815 32.9389 20.5217 32.4999 19.4167 32.4999ZM34 17.9166C32.8949 17.9166 31.8351 18.3556 31.0537 19.137C30.2723 19.9184 29.8333 20.9782 29.8333 22.0833C29.8333 23.1883 30.2723 24.2481 31.0537 25.0295C31.8351 25.8109 32.8949 26.2499 34 26.2499C35.1051 26.2499 36.1649 25.8109 36.9463 25.0295C37.7277 24.2481 38.1667 23.1883 38.1667 22.0833C38.1667 20.9782 37.7277 19.9184 36.9463 19.137C36.1649 18.3556 35.1051 17.9166 34 17.9166ZM34 47.0833C32.8949 47.0833 31.8351 47.5222 31.0537 48.3036C30.2723 49.085 29.8333 50.1449 29.8333 51.2499C29.8333 52.355 30.2723 53.4148 31.0537 54.1962C31.8351 54.9776 32.8949 55.4166 34 55.4166C35.1051 55.4166 36.1649 54.9776 36.9463 54.1962C37.7277 53.4148 38.1667 52.355 38.1667 51.2499C38.1667 50.1449 37.7277 49.085 36.9463 48.3036C36.1649 47.5222 35.1051 47.0833 34 47.0833ZM48.5833 47.0833C47.4783 47.0833 46.4185 47.5222 45.6371 48.3036C44.8557 49.085 44.4167 50.1449 44.4167 51.2499C44.4167 52.355 44.8557 53.4148 45.6371 54.1962C46.4185 54.9776 47.4783 55.4166 48.5833 55.4166C49.6884 55.4166 50.7482 54.9776 51.5296 54.1962C52.311 53.4148 52.75 52.355 52.75 51.2499C52.75 50.1449 52.311 49.085 51.5296 48.3036C50.7482 47.5222 49.6884 47.0833 48.5833 47.0833ZM34 32.4999C32.8949 32.4999 31.8351 32.9389 31.0537 33.7203C30.2723 34.5017 29.8333 35.5615 29.8333 36.6666C29.8333 37.7717 30.2723 38.8315 31.0537 39.6129C31.8351 40.3943 32.8949 40.8333 34 40.8333C35.1051 40.8333 36.1649 40.3943 36.9463 39.6129C37.7277 38.8315 38.1667 37.7717 38.1667 36.6666C38.1667 35.5615 37.7277 34.5017 36.9463 33.7203C36.1649 32.9389 35.1051 32.4999 34 32.4999Z" fill="#EE0020"/>
</svg>
