<svg width="100" height="100" viewBox="0 0 100 100" fill="none" xmlns="http://www.w3.org/2000/svg">
<path d="M88.6719 62.5H78.5156V47.6562C78.5156 47.2266 78.1641 46.875 77.7344 46.875H53.5156V37.5H64.0625C64.9219 37.5 65.625 36.7969 65.625 35.9375V7.8125C65.625 6.95312 64.9219 6.25 64.0625 6.25H35.9375C35.0781 6.25 34.375 6.95312 34.375 7.8125V35.9375C34.375 36.7969 35.0781 37.5 35.9375 37.5H46.4844V46.875H22.2656C21.8359 46.875 21.4844 47.2266 21.4844 47.6562V62.5H11.3281C10.4688 62.5 9.76562 63.2031 9.76562 64.0625V92.1875C9.76562 93.0469 10.4688 93.75 11.3281 93.75H39.4531C40.3125 93.75 41.0156 93.0469 41.0156 92.1875V64.0625C41.0156 63.2031 40.3125 62.5 39.4531 62.5H28.5156V53.9062H71.4844V62.5H60.5469C59.6875 62.5 58.9844 63.2031 58.9844 64.0625V92.1875C58.9844 93.0469 59.6875 93.75 60.5469 93.75H88.6719C89.5312 93.75 90.2344 93.0469 90.2344 92.1875V64.0625C90.2344 63.2031 89.5312 62.5 88.6719 62.5ZM33.5938 69.9219V86.3281H17.1875V69.9219H33.5938ZM41.7969 30.0781V13.6719H58.2031V30.0781H41.7969ZM82.8125 86.3281H66.4062V69.9219H82.8125V86.3281Z" fill="#EE0020"/>
</svg>
