<svg width="100" height="100" viewBox="0 0 100 100" fill="none" xmlns="http://www.w3.org/2000/svg">
<path fill-rule="evenodd" clip-rule="evenodd" d="M69.8958 12.6084C70.9321 12.3679 72.0211 12.5328 72.9396 13.0694C73.8582 13.606 74.5367 14.4736 74.8361 15.4944C75.1355 16.5152 75.0331 17.6118 74.55 18.5596C74.0668 19.5073 73.2395 20.2344 72.2375 20.5917L71.7708 20.7251L62.5 22.8667V41.6667H79.1667C81.2691 41.6661 83.294 42.4601 84.8356 43.8896C86.3772 45.3192 87.3215 47.2786 87.4792 49.375L87.5 50V79.1667C87.5007 81.2691 86.7066 83.2941 85.2771 84.8357C83.8476 86.3773 81.8882 87.3215 79.7917 87.4792L79.1667 87.5H25C22.8976 87.5007 20.8726 86.7067 19.3311 85.2771C17.7895 83.8476 16.8452 81.8882 16.6875 79.7917L16.6667 79.1667V33.3334C15.6841 33.3347 14.7327 32.9889 13.9805 32.3568C13.2282 31.7247 12.7236 30.8472 12.5556 29.8791C12.3876 28.9111 12.5671 27.9148 13.0624 27.0662C13.5577 26.2177 14.337 25.5715 15.2625 25.2417L15.7292 25.1084L69.8958 12.6084ZM62.5 58.3334H58.3333C57.3128 58.3335 56.3278 58.7082 55.5651 59.3864C54.8025 60.0645 54.3152 60.999 54.1958 62.0126L54.1667 62.5V79.1667H66.6667V62.5C66.6665 61.4795 66.2919 60.4945 65.6137 59.7318C64.9355 58.9692 64.001 58.482 62.9875 58.3625L62.5 58.3334ZM33.3333 29.5959L25 31.5209V79.1667H33.3333V29.5959ZM54.1667 24.7875L41.6667 27.6751V41.6667H54.1667V24.7875Z" fill="#EE0020"/>
</svg>
