<svg width="80" height="80" viewBox="0 0 80 80" fill="none" xmlns="http://www.w3.org/2000/svg">
<g clip-path="url(#clip0_28_509)">
<path d="M2.66667 29.3334L1.12 27.1627L0 27.9627V29.3334H2.66667ZM40 2.66673L41.5467 0.496065C41.095 0.174507 40.5544 0.00170898 40 0.00170898C39.4456 0.00170898 38.905 0.174507 38.4533 0.496065L40 2.66673ZM77.3333 29.3334H80V27.9627L78.88 27.1627L77.3333 29.3334ZM13.3333 45.3334V42.6667H10.6667V45.3334H13.3333ZM34.6667 45.3334H37.3333V42.6667H34.6667V45.3334ZM5.33333 80.0001V29.3334H0L0 80.0001H5.33333ZM4.21333 31.5041L41.5467 4.8374L38.4533 0.496065L1.12 27.1627L4.21333 31.5041ZM38.4533 4.8374L75.7867 31.5041L78.88 27.1627L41.5467 0.496065L38.4533 4.8374ZM74.6667 29.3334V80.0001H80V29.3334H74.6667ZM16 80.0001V45.3334H10.6667V80.0001H16ZM13.3333 48.0001H34.6667V42.6667H13.3333V48.0001ZM32 45.3334V80.0001H37.3333V45.3334H32ZM26.6667 64.0001H34.6667V58.6667H26.6667V64.0001ZM58.6667 42.6667V64.0001H64V42.6667H58.6667ZM69.3333 10.6667V24.0001H74.6667V10.6667H69.3333Z" fill="#EE0020"/>
</g>
<defs>
<clipPath id="clip0_28_509">
<rect width="80" height="80" fill="white"/>
</clipPath>
</defs>
</svg>
